<?xml version="1.0" encoding="UTF-8"?>
<!DOCTYPE svg PUBLIC "-//W3C//DTD SVG 1.1//EN" "http://www.w3.org/Graphics/SVG/1.1/DTD/svg11.dtd">
<!-- Creator: CorelDRAW 2017 -->
<svg xmlns="http://www.w3.org/2000/svg" xml:space="preserve" width="40px" height="32px" version="1.1" style="shape-rendering:geometricPrecision; text-rendering:geometricPrecision; image-rendering:optimizeQuality; fill-rule:evenodd; clip-rule:evenodd"
viewBox="0 0 23.43 18.45"
 xmlns:xlink="http://www.w3.org/1999/xlink">
 <defs>
  <style type="text/css">
   <![CDATA[
    .fil0 {fill:#FEFEFE}
    .fil1 {fill:black}
    .fil2 {fill:#49474C}
    .fil3 {fill:#AA0000}
   ]]>
  </style>
 </defs>
 <g id="Camada_x0020_1">
  <metadata id="CorelCorpID_0Corel-Layer"/>
  <g id="_1818188532576">
   <path class="fil0" d="M4.4 5.37c0.35,-1.15 0.98,-2.24 1.89,-3.15 2.97,-2.96 7.77,-2.96 10.73,0 0.93,0.93 1.57,2.06 1.92,3.26 0.02,-0.04 0.05,-0.07 0.08,-0.1 0.42,-0.41 0.97,-0.66 1.56,-0.66 1.48,0 2.42,1.42 2.42,2.8 0,0.89 -0.39,1.79 -1.06,2.32 0.88,0.48 1.49,1.39 1.49,2.46 0,0.23 -0.18,0.41 -0.41,0.41l-3.42 0c0.93,0.93 1.85,1.85 2.78,2.78 0.37,0.37 0.57,0.85 0.48,1.37 -0.21,1.28 -2.01,2.16 -3.01,1.16 -1.36,-1.36 -2.72,-2.71 -4.07,-4.07 -2.98,1.94 -6.95,1.53 -9.49,-1 -0.21,-0.22 -0.4,-0.44 -0.59,-0.67 0,0.01 0,0.02 0,0.02 0,0.23 -0.18,0.41 -0.41,0.41l-4.88 0c-0.23,0 -0.41,-0.18 -0.41,-0.41 0,-1.07 0.61,-1.98 1.49,-2.46 -0.67,-0.53 -1.06,-1.43 -1.06,-2.32 0,-1.38 0.94,-2.8 2.42,-2.8 0.59,0 1.13,0.24 1.55,0.65z"/>
   <g>
    <circle class="fil1" cx="11.61" cy="7.52" r="5.61"/>
    <path class="fil2" d="M20.58 5.13c1.11,0 2.01,1.07 2.01,2.39 0,1.32 -0.9,2.39 -2.01,2.39 -0.47,0 -0.91,-0.19 -1.25,-0.51 0.31,-1.22 0.3,-2.51 -0.02,-3.73 0.34,-0.33 0.79,-0.54 1.27,-0.54z"/>
    <path class="fil2" d="M20.58 9.91c1.35,0 2.44,1.07 2.44,2.39l-3.72 0 -0.86 -0.81c0.2,-0.31 0.37,-0.63 0.51,-0.97 0.43,-0.38 1,-0.61 1.63,-0.61z"/>
    <g>
     <path class="fil2" d="M11.77 4.48c1.47,0 2.65,1.41 2.65,3.15 0,1.74 -1.18,3.15 -2.65,3.15 -1.46,0 -2.65,-1.41 -2.65,-3.15 0,-1.74 1.19,-3.15 2.65,-3.15z"/>
     <path class="fil2" d="M11.77 10.78c1.01,0 1.91,0.45 2.5,1.16 -1.52,1.03 -3.52,1.07 -5.07,0.1 0.58,-0.77 1.52,-1.26 2.57,-1.26z"/>
    </g>
    <path class="fil2" d="M5.29 12.3l-4.88 0c0,-1.32 1.09,-2.39 2.44,-2.39 0.63,0 1.2,0.23 1.63,0.61 0.21,0.48 0.47,0.94 0.78,1.38 0.02,0.13 0.03,0.27 0.03,0.4z"/>
    <path class="fil2" d="M4.13 5.67c-0.33,1.22 -0.34,2.51 -0.03,3.73 -0.34,0.32 -0.78,0.51 -1.25,0.51 -1.11,0 -2.01,-1.07 -2.01,-2.39 0,-1.32 0.9,-2.39 2.01,-2.39 0.49,0 0.93,0.21 1.28,0.54z"/>
    <path class="fil3" d="M22.09 15.78c1.26,1.26 -0.92,2.98 -1.95,1.95 -1,-1 -3.07,-3.07 -4.31,-4.31 -2.8,2.01 -6.73,1.75 -9.25,-0.77 -2.8,-2.8 -2.8,-7.34 0,-10.14 2.81,-2.8 7.35,-2.8 10.15,0 2.41,2.42 2.74,6.13 0.99,8.9 1.15,1.15 3.07,3.08 4.37,4.37zm-6.85 -4.61c1.98,-1.98 1.98,-5.19 0,-7.17 -1.98,-1.98 -5.19,-1.98 -7.17,0 -1.97,1.98 -1.97,5.19 0,7.17 1.98,1.97 5.19,1.97 7.17,0z"/>
   </g>
  </g>
 </g>
</svg>
