<?xml version="1.0" encoding="UTF-8"?>
<!DOCTYPE svg PUBLIC "-//W3C//DTD SVG 1.1//EN" "http://www.w3.org/Graphics/SVG/1.1/DTD/svg11.dtd">
<!-- Creator: CorelDRAW 2017 -->
<svg xmlns="http://www.w3.org/2000/svg" xml:space="preserve" width="40px" height="43px" version="1.1" style="shape-rendering:geometricPrecision; text-rendering:geometricPrecision; image-rendering:optimizeQuality; fill-rule:evenodd; clip-rule:evenodd"
viewBox="0 0 52.55 56.59"
 xmlns:xlink="http://www.w3.org/1999/xlink">
 <defs>
  <style type="text/css">
   <![CDATA[
    .fil1 {fill:#FEFEFE}
    .fil0 {fill:#FEFEFE}
    .fil4 {fill:#A9ABAE}
    .fil3 {fill:#49474C}
    .fil2 {fill:#AA0000}
   ]]>
  </style>
 </defs>
 <g id="Camada_x0020_1">
  <metadata id="CorelCorpID_0Corel-Layer"/>
  <circle class="fil0" cx="12.98" cy="43.27" r="11.31"/>
  <circle class="fil0" cx="13.04" cy="13.03" r="11.31"/>
  <circle class="fil0" cx="39.4" cy="28.33" r="11.31"/>
  <g id="_1818188528384">
   <path class="fil1" d="M25.96 10.02c1.73,0.23 4.19,1.33 5.6,2.14 1.55,0.89 2.67,1.83 3.97,3.03 0.12,0.11 0.22,0.2 0.32,0.33 0.03,0.04 0.06,0.07 0.09,0.11 0.74,-0.21 1.51,-0.36 2.29,-0.43 4.96,-0.48 9.65,1.91 12.3,6.11 1.11,1.76 1.8,3.76 1.97,5.84 0.4,4.88 -1.87,9.54 -5.99,12.21 -1.75,1.14 -3.76,1.84 -5.84,2.03 -1.42,0.12 -2.82,0.03 -4.16,-0.27 -2.01,2.78 -7.33,5.9 -10.77,6.32 -1.54,4.77 -5.75,8.43 -11.01,9.06 -7.26,0.87 -13.74,-4.34 -14.63,-11.52 -0.51,-4.09 0.96,-7.96 3.63,-10.7 -0.92,-3 -1.08,-6.21 -0.47,-9.28 0.17,-0.85 0.47,-1.65 0.66,-2.49 -2.01,-2.01 -3.4,-4.67 -3.8,-7.7 -0.97,-7.31 4.25,-13.72 11.48,-14.69 6.73,-0.91 12.76,3.56 14.36,9.9zm0.35 4.22c-0.37,4.25 -2.86,8.26 -6.63,10.36 -1.53,0.85 -3.09,1.39 -4.84,1.62 -2.66,0.34 -5.21,-0.13 -7.43,-1.22 -0.12,0.62 -0.25,1.24 -0.36,1.88 -0.24,1.3 -0.22,2.4 -0.05,3.71 0.05,0.37 0.13,0.75 0.21,1.12 1.35,-0.69 2.84,-1.16 4.42,-1.36 7.22,-0.9 13.75,4.35 14.63,11.5 0.06,0.43 0.09,0.86 0.1,1.29 0.5,-0.16 1.03,-0.3 1.43,-0.46 0.69,-0.29 1.32,-0.58 1.95,-0.99 0.7,-0.45 2.11,-1.37 2.87,-2.14 -1.48,-0.89 -2.8,-2.08 -3.86,-3.55 -1.38,-1.89 -2.23,-4.12 -2.45,-6.46 -0.39,-4.26 1.2,-8.32 4.44,-11.13 0.41,-0.36 0.84,-0.69 1.29,-0.99 -0.19,-0.17 -0.38,-0.34 -0.56,-0.49 -0.63,-0.52 -1.27,-0.98 -1.98,-1.38 -0.78,-0.44 -1.61,-0.77 -2.45,-1.07 -0.2,-0.07 -0.47,-0.15 -0.73,-0.24zm-14.42 19.39c-5.45,0.88 -9.3,5.57 -8.52,11.13 0.76,5.39 5.68,9.22 11.12,8.47 5.42,-0.75 9.26,-5.67 8.49,-11.15 -0.74,-5.3 -5.75,-9.31 -11.09,-8.45zm18.37 -1.5c-0.52,-1.86 0.39,-3.81 2.27,-4.38 0.27,-0.58 0.4,-1.13 0.87,-1.73 0.75,-0.96 1.84,-1.28 2.98,-1.31 1.79,-3.43 6.46,-3.72 8.69,-0.39 0.11,0.16 0.25,0.5 0.37,0.64 0.08,0.05 0.22,0.09 0.3,0.12 0.27,0.09 0.52,0.21 0.76,0.35 0.78,0.48 1.31,1.2 1.69,2.03 0.86,1.87 0.58,4.13 -0.74,5.72 -1.48,1.8 -3.43,1.48 -5.51,1.48 -2.02,0 -4.04,0 -6.06,0 -1.81,0 -3.65,0.32 -4.83,-1.02 2.01,3.16 5.73,5.02 9.73,4.47 2.48,-0.35 4.79,-1.7 6.37,-3.63 1.75,-2.14 2.46,-4.8 2.07,-7.53 -0.76,-5.29 -5.76,-9.33 -11.1,-8.48 -5.47,0.87 -9.34,5.62 -8.54,11.19 0.12,0.87 0.35,1.7 0.68,2.47zm-26.87 -20.57c-0.15,0.94 -0.17,1.93 -0.02,2.93 0.05,0.36 0.12,0.71 0.21,1.06 1.27,4.95 5.83,8.13 10.93,7.42 1.64,-0.23 3.13,-0.84 4.4,-1.73l-1.3 0.02c-0.33,0.01 -0.61,-0.16 -0.77,-0.45 -0.03,-0.06 -0.06,-0.13 -0.09,-0.19 -0.23,0.11 -0.5,0.12 -0.74,0 -0.51,-0.24 -1.22,-0.97 -1.54,-1.44 -0.18,-0.27 -0.19,-0.6 -0.04,-0.88 -0.11,-0.06 -0.22,-0.14 -0.32,-0.24 -0.12,-0.12 -0.21,-0.25 -0.27,-0.39 -0.01,0.01 -0.02,0.01 -0.03,0.02 -0.22,0.1 -0.45,0.11 -0.68,0.02 -0.3,-0.11 -0.51,-0.26 -0.69,-0.44l-0.04 0.55c-0.02,0.45 -0.39,0.8 -0.84,0.81l-2.66 0.03c-0.45,0.01 -0.83,-0.33 -0.87,-0.78l-0.05 -0.6c-0.23,0.22 -0.48,0.36 -0.8,0.46 -0.24,0.07 -0.47,0.04 -0.68,-0.09 -0.48,-0.28 -1.85,-1.65 -2.11,-2.14 -0.12,-0.21 -0.14,-0.45 -0.06,-0.68 0.15,-0.44 0.2,-0.45 0.49,-0.76 -0.24,-0.02 -0.47,0 -0.77,-0.09 -0.33,-0.1 -0.56,-0.37 -0.61,-0.71 -0.07,-0.57 -0.06,-1.14 -0.05,-1.71zm0.91 -2.82c-0.19,0.36 -0.35,0.73 -0.48,1.11 0.01,-0.01 0.03,-0.02 0.05,-0.03 0.27,-0.21 0.58,-0.22 0.9,-0.22 -0.11,-0.14 -0.2,-0.3 -0.35,-0.55 -0.07,-0.1 -0.11,-0.2 -0.12,-0.31zm1.18 -1.82c0.43,-0.42 0.87,-0.8 1.12,-0.91 0.19,-0.08 0.39,-0.09 0.59,-0.03 0.31,0.1 0.54,0.23 0.74,0.4 0.02,-0.27 0.07,-0.48 0.27,-0.82 0.1,-0.15 0.22,-0.26 0.39,-0.34 0.65,-0.29 1.47,-0.17 2.16,-0.17 0.65,-0.01 1.42,0.08 1.67,0.8 0.1,0.26 0.07,0.41 0.04,0.58 0.18,-0.16 0.37,-0.3 0.65,-0.42 0.23,-0.09 0.46,-0.09 0.68,0.01 0.55,0.24 1.98,1.67 2.24,2.22 0.1,0.2 0.11,0.41 0.04,0.62 -0.1,0.31 -0.23,0.55 -0.45,0.78l0.51 0.02c0.39,0.02 0.71,0.28 0.8,0.66 0.11,0.48 0.15,1.27 0.12,1.98 0.3,-0.2 0.74,-0.26 1.21,-0.26 0.71,-0.01 1.33,-0.11 1.71,0.67 0.32,-0.18 0.73,-0.14 1,0.12l1.15 1.08c0.23,0.21 0.32,0.5 0.26,0.8 -0.03,0.13 -0.06,0.24 -0.09,0.34 0.06,0.02 0.12,0.06 0.19,0.09 0.16,0.09 0.28,0.21 0.36,0.36 0.28,-1.17 0.34,-2.42 0.15,-3.7 -0.82,-5.4 -5.64,-9.19 -11.08,-8.44 -2.62,0.36 -4.88,1.68 -6.43,3.56z"/>
   <g>
    <path class="fil2" d="M11.75 32.78c5.63,-0.9 11.24,3.21 12.08,9.18 0.9,6.4 -3.81,11.37 -9.22,12.12 -6.36,0.88 -11.33,-3.81 -12.08,-9.2 -0.81,-5.76 3.04,-11.1 9.22,-12.1zm-0.01 -1.58c-6.78,0.84 -11.62,6.97 -10.79,13.68 0.78,6.27 6.45,11.64 13.68,10.77 6.24,-0.75 11.68,-6.44 10.78,-13.7 -0.76,-6.22 -6.49,-11.64 -13.67,-10.75z"/>
    <path class="fil2" d="M11.79 2.51c5.77,-0.79 11.13,3.16 12.04,9.16 0.98,6.39 -3.79,11.39 -9.2,12.14 -6.49,0.91 -11.33,-3.82 -12.11,-9.19 -0.83,-5.77 3.15,-11.27 9.27,-12.11zm-0.07 -1.54c-7.02,0.94 -11.63,7.13 -10.75,13.73 0.82,6.22 6.49,11.6 13.76,10.67 1.77,-0.23 3.2,-0.78 4.54,-1.52 4.22,-2.35 6.8,-7.37 6.12,-12.28 -0.87,-6.19 -6.52,-11.57 -13.67,-10.6z"/>
    <path class="fil2" d="M37.98 17.63c5.59,-0.9 11.23,3.19 12.09,9.2 0.92,6.42 -3.88,11.38 -9.17,12.12 -6.41,0.9 -11.4,-3.77 -12.17,-9.17 -0.83,-5.78 3.06,-11.17 9.25,-12.15zm0.33 -1.58c-6.47,0.62 -11.82,6.24 -11.15,13.41 0.6,6.42 6.3,11.71 13.43,11.07 6.36,-0.56 11.64,-6.27 11.06,-13.31 -0.53,-6.41 -6.31,-11.84 -13.34,-11.17z"/>
    <path class="fil3" d="M17.74 15c2.45,-0.79 3.25,2.58 1.32,3.29 -2.49,0.92 -3.4,-2.62 -1.32,-3.29zm-5.28 -4.42c0.23,0.28 0.31,0.52 0.35,0.93 0.3,3.03 -3.37,3.65 -4.35,2.28 -0.4,-0.06 -0.58,-0.34 -0.74,-0.74 -1.16,-2.88 1.91,-5.02 4.25,-3.33 0.72,0.51 0.51,0.65 0.49,0.86zm9.61 5.31c-0.78,-0.42 -0.46,0.39 -0.91,-0.67 0.24,-0.47 0.27,-0.16 0.38,-0.69l-1.15 -1.07 -0.55 0.42c-0.94,-0.35 -0.36,-0.11 -0.62,-0.74 -0.15,-0.36 -0.41,-0.25 -0.96,-0.25 -1.44,0.01 -0.24,0.38 -1.02,0.86 -0.43,0.26 -0.59,0 -0.97,-0.28 -0.35,0.3 -0.87,0.7 -1.08,1.19 0.1,0.2 0.1,0.15 0.2,0.29 0.2,0.28 0.04,-0.05 0.19,0.27 -0.31,0.65 -0.01,0.57 -0.8,0.57 0.2,-0.39 0.28,-0.28 0.48,-0.68 -0.14,-0.38 -0.36,-0.52 -0.61,-0.79 0.04,-0.41 0.21,-0.79 0.42,-1.05l1.03 -0.1c0.12,-0.61 0.14,-2.03 0,-2.65l-1.08 -0.05 -0.4 -0.97c0.27,-0.46 0.48,-0.4 0.63,-0.9 -0.16,-0.35 -1.46,-1.64 -1.81,-1.8 -0.37,0.16 -0.55,0.41 -0.77,0.67 -2.35,-0.52 0.1,-1.59 -1.91,-1.57 -0.56,0.01 -1.39,-0.09 -1.82,0.1 -0.52,0.87 0.44,1.1 -1.21,1.47 -0.21,-0.29 -0.37,-0.54 -0.79,-0.67 -0.34,0.15 -1.62,1.49 -1.8,1.8 0.19,0.29 0.14,0.42 0.7,0.8l-0.43 1.04c-1.04,0.11 -1.18,-0.29 -1.17,0.85 0.01,0.62 -0.03,1.25 0.05,1.87 0.46,0.13 0.91,0 1.14,0.22 0.11,0.11 0.21,0.54 0.39,0.77 -0.18,0.38 -0.08,0.19 -0.36,0.49 -0.24,0.26 -0.19,0.1 -0.32,0.47 0.18,0.33 1.47,1.61 1.8,1.81 0.5,-0.15 0.5,-0.41 0.9,-0.66 0.3,0.12 0.73,0.28 0.95,0.44l0.1 1.1 2.66 -0.03 0.07 -1.14 1.05 -0.39c0.22,0.26 0.4,0.53 0.77,0.67 0.54,-0.25 0.56,-0.6 1.17,-0.93 0,0.37 -0.14,1.23 0.09,1.46 0.46,0.44 0.47,-0.43 0.88,0.7 -0.16,0.28 -0.2,0.22 -0.39,0.56 0.22,0.34 0.83,0.98 1.19,1.15l0.54 -0.39c1.09,0.45 0.24,0.13 0.68,0.94l1.59 -0.02c0.11,-0.47 -0.1,-0.66 0.38,-0.85 0.52,-0.2 0.4,0.08 0.83,0.29 0.37,-0.16 0.94,-0.78 1.14,-1.12 -0.37,-0.76 -0.49,-0.02 -0.2,-1.11l0.76 -0.12 -0.03 -1.58z"/>
    <path class="fil3" d="M34.39 29.78c0.11,-1.17 0.1,-1.74 0.82,-2.44 0.88,-0.84 1.47,-0.38 2.36,0 0.47,-0.58 0.84,-3.01 3.05,-3.2 0.95,-0.08 1.76,0.38 2.22,0.84 0.65,0.66 0.7,1.18 1.15,1.98 2.6,0.03 2.8,2.74 2.22,4.09 -0.34,0.79 -0.84,1.38 -1.91,1.42 -2.75,0.1 -7.22,0 -10.1,0 -1.13,0 -1.95,0 -1.88,-1.42 0.07,-1.42 0.8,-1.18 2.07,-1.27zm-1.28 -1.29c-1.64,0.29 -2.7,2.05 -1.84,3.91 0.82,1.78 2.4,1.4 4.61,1.4 2.02,0 4.04,0 6.06,0 2.25,0 3.68,0.26 4.85,-1.16 1,-1.2 1.42,-3.09 0.62,-4.83 -0.86,-1.88 -2,-1.85 -2.46,-2.14 -0.26,-0.16 -0.42,-0.63 -0.59,-0.87 -2.06,-3.06 -6.18,-2.38 -7.43,0.77 -3.17,-0.16 -3.18,1.8 -3.82,2.92z"/>
    <path class="fil3" d="M10.01 47.55c0.9,-0.52 1.45,0.76 0.74,1.22 -0.37,0.24 -0.89,0.11 -1.05,-0.19 -0.38,-0.67 0.13,-0.93 0.31,-1.03zm4.16 0.83c-0.48,-0.02 -2.05,-1.02 -2.52,-1.3 -0.82,-0.47 -1.64,-0.92 -2.5,-1.43 -0.41,-0.25 -1.03,-0.43 -0.89,-0.94l3.57 -6.21c0.66,-1.2 0.59,-1.87 1.94,-1.05 0.81,0.5 1.67,0.94 2.49,1.43 0.66,0.4 2.01,1.03 2.43,1.47 0.14,0.34 -1.84,3.59 -2.15,4.11 -0.49,0.82 -1.84,3.44 -2.37,3.92zm-1.23 -12.48c-0.84,0.28 -2.32,3.25 -2.83,4.14 -0.87,1.55 -1.69,2.93 -2.59,4.49 -1.1,1.88 -1.13,3.5 0.42,4.92 1.36,1.25 3.47,2.16 5.21,1.26 1.17,-0.6 2.18,-2.72 2.91,-4.04 0.86,-1.53 1.72,-2.91 2.6,-4.47 1.47,-2.61 1.49,-2.76 -0.88,-4.16 -0.84,-0.5 -1.45,-0.83 -2.21,-1.27 -0.7,-0.42 -1.64,-1.2 -2.63,-0.87z"/>
    <path class="fil2" d="M25.73 44.33l-0.35 2.29c3.36,-0.27 8.81,-3.58 10.55,-6.16 -0.3,-0.25 -0.68,-0.31 -1.06,-0.45 -0.4,-0.16 -0.75,-0.34 -1.16,-0.45 -0.59,0.93 -2.42,2.14 -3.5,2.85 -0.71,0.46 -1.33,0.74 -2.09,1.06 -0.58,0.24 -2,0.59 -2.39,0.86z"/>
    <path class="fil2" d="M4.6 34.18c0.62,-0.34 1.09,-0.97 1.89,-1.35 -0.01,-0.59 -0.26,-1.48 -0.34,-2.13 -0.42,-3.29 0.21,-4.1 0.55,-6.73l-1.92 -1.37c-0.18,0.81 -0.49,1.63 -0.68,2.57 -0.6,3.02 -0.41,6.14 0.5,9.01z"/>
    <path class="fil2" d="M25.78 13.09c0.45,0.29 2.3,0.7 4.13,1.71 1.82,1.02 2.67,2.08 3.39,2.5 0.48,-0.22 1.7,-0.73 2.05,-0.96 -0.11,-0.25 0.03,-0.03 -0.18,-0.3 -0.07,-0.09 -0.13,-0.14 -0.22,-0.22 -1.28,-1.19 -2.22,-2 -3.81,-2.92 -1.24,-0.71 -3.94,-1.95 -5.58,-2.06l0.22 2.25z"/>
    <path class="fil4" d="M9.68 9.94c2.61,-0.69 3.56,3.12 1.1,3.84 -2.58,0.76 -3.72,-3.14 -1.1,-3.84zm-1.22 3.85c0.27,0.06 2.09,1.18 3.31,-0.01l0.56 -0.58c0.61,-0.99 0.17,-1.91 0.13,-2.62 0.02,-0.21 0.23,-0.35 -0.49,-0.86 -2.34,-1.69 -5.41,0.45 -4.25,3.33 0.16,0.4 0.34,0.68 0.74,0.74z"/>
    <path class="fil4" d="M17.17 17.02c-0.45,-1.75 2.12,-2.17 2.41,-0.64 0.31,1.64 -2.04,2.07 -2.41,0.64zm0.57 -2.02c-2.08,0.67 -1.17,4.21 1.32,3.29 1.93,-0.71 1.13,-4.08 -1.32,-3.29z"/>
   </g>
  </g>
 </g>
</svg>
