<?xml version="1.0" encoding="UTF-8"?>
<!DOCTYPE svg PUBLIC "-//W3C//DTD SVG 1.1//EN" "http://www.w3.org/Graphics/SVG/1.1/DTD/svg11.dtd">
<!-- Creator: CorelDRAW 2017 -->
<svg xmlns="http://www.w3.org/2000/svg" xml:space="preserve" width="40px" height="40px" version="1.1" style="shape-rendering:geometricPrecision; text-rendering:geometricPrecision; image-rendering:optimizeQuality; fill-rule:evenodd; clip-rule:evenodd"
viewBox="0 0 13.69 13.69"
 xmlns:xlink="http://www.w3.org/1999/xlink">
 <defs>
  <style type="text/css">
   <![CDATA[
    .fil0 {fill:#FEFEFE}
    .fil1 {fill:black}
    .fil3 {fill:#49474C}
    .fil2 {fill:#870000}
   ]]>
  </style>
 </defs>
 <g id="Camada_x0020_1">
  <metadata id="CorelCorpID_0Corel-Layer"/>
  <g id="_1818188543456">
   <path class="fil0" d="M10.1 9.58c0.06,0 0.13,0.02 0.18,0.07l0.57 0.56 0 -0.06c0,-0.12 0.1,-0.22 0.22,-0.22l0.46 0c0.12,0 0.22,0.1 0.22,0.22l0 1.38c0,0.12 -0.1,0.22 -0.22,0.22l-1.38 0c-0.12,0 -0.22,-0.1 -0.22,-0.22l0 -0.46c0,-0.12 0.1,-0.22 0.22,-0.22l0.06 0 -0.56 -0.57c-0.05,-0.05 -0.07,-0.12 -0.07,-0.18 -0.65,0.55 -1.47,0.91 -2.37,0.99 0.05,0.04 0.08,0.1 0.08,0.17l0 0.79 0.04 -0.04c0.09,-0.08 0.23,-0.08 0.32,0l0.32 0.33c0.09,0.08 0.09,0.22 0,0.31l-0.97 0.97c-0.09,0.09 -0.23,0.09 -0.31,0l-0.98 -0.97c-0.08,-0.09 -0.08,-0.23 0,-0.31l0.33 -0.33c0.08,-0.08 0.22,-0.08 0.31,0l0.04 0.04 0 -0.79c0,-0.07 0.04,-0.13 0.09,-0.17 -0.9,-0.08 -1.72,-0.44 -2.38,-0.99 0.01,0.06 -0.01,0.13 -0.06,0.18l-0.57 0.57 0.06 0c0.13,0 0.23,0.1 0.23,0.22l0 0.46c0,0.12 -0.1,0.22 -0.23,0.22l-1.37 0c-0.12,0 -0.22,-0.1 -0.22,-0.22l0 -1.38c0,-0.12 0.1,-0.22 0.22,-0.22l0.46 0c0.12,0 0.22,0.1 0.22,0.22l0 0.06 0.56 -0.56c0.05,-0.05 0.12,-0.07 0.19,-0.07 -0.55,-0.65 -0.91,-1.47 -0.99,-2.37 -0.04,0.05 -0.1,0.08 -0.17,0.08l-0.8 0 0.04 0.04c0.09,0.09 0.09,0.23 0,0.32l-0.32 0.32c-0.09,0.09 -0.23,0.09 -0.31,0l-0.98 -0.97c-0.08,-0.09 -0.08,-0.23 0,-0.31l0.98 -0.98c0.08,-0.08 0.22,-0.08 0.31,0l0.32 0.33c0.09,0.08 0.09,0.22 0,0.31l-0.04 0.04 0.8 0c0.07,0 0.13,0.04 0.17,0.09 0.08,-0.9 0.44,-1.72 0.99,-2.38 -0.07,0.01 -0.14,-0.01 -0.19,-0.06l-0.56 -0.57 0 0.06c0,0.13 -0.1,0.23 -0.22,0.23l-0.46 0c-0.12,0 -0.22,-0.1 -0.22,-0.23l0 -1.37c0,-0.12 0.1,-0.22 0.22,-0.22l1.37 0c0.13,0 0.23,0.1 0.23,0.22l0 0.46c0,0.12 -0.1,0.22 -0.23,0.22l-0.06 0 0.57 0.56c0.05,0.05 0.07,0.12 0.06,0.19 0.66,-0.55 1.48,-0.91 2.38,-0.99 -0.05,-0.04 -0.09,-0.1 -0.09,-0.17l0 -0.8 -0.04 0.04c-0.09,0.09 -0.23,0.09 -0.31,0l-0.33 -0.32c-0.08,-0.09 -0.08,-0.23 0,-0.31l0.98 -0.98c0.08,-0.08 0.22,-0.08 0.31,0l0.97 0.98c0.09,0.08 0.09,0.22 0,0.31l-0.32 0.32c-0.09,0.09 -0.23,0.09 -0.32,0l-0.04 -0.04 0 0.8c0,0.07 -0.03,0.13 -0.08,0.17 0.9,0.08 1.72,0.44 2.37,0.99 0,-0.07 0.02,-0.14 0.07,-0.19l0.56 -0.56 -0.06 0c-0.12,0 -0.22,-0.1 -0.22,-0.22l0 -0.46c0,-0.12 0.1,-0.22 0.22,-0.22l1.38 0c0.12,0 0.22,0.1 0.22,0.22l0 1.37c0,0.13 -0.1,0.23 -0.22,0.23l-0.46 0c-0.12,0 -0.22,-0.1 -0.22,-0.23l0 -0.06 -0.57 0.57c-0.05,0.05 -0.12,0.07 -0.18,0.06 0.55,0.66 0.91,1.48 0.99,2.38 0.04,-0.05 0.1,-0.09 0.17,-0.09l0.79 0 -0.04 -0.04c-0.08,-0.09 -0.08,-0.23 0,-0.31l0.33 -0.33c0.08,-0.08 0.22,-0.08 0.31,0l0.97 0.98c0.09,0.08 0.09,0.22 0,0.31l-0.97 0.97c-0.09,0.09 -0.23,0.09 -0.31,0l-0.33 -0.32c-0.08,-0.09 -0.08,-0.23 0,-0.32l0.04 -0.04 -0.79 0c-0.07,0 -0.13,-0.03 -0.17,-0.08 -0.08,0.9 -0.44,1.72 -0.99,2.37zm-1.41 -4.38c-0.46,0.15 -0.94,0.24 -1.41,0.27l0 0.95 1.66 0c-0.03,-0.41 -0.11,-0.83 -0.25,-1.22zm-1.41 -0.59c0.34,-0.03 0.69,-0.1 1.03,-0.2 -0.25,-0.38 -0.6,-0.74 -1.03,-0.89l0 1.09zm2.28 4.26c0.34,-0.46 0.57,-1.01 0.65,-1.58l-0.4 0c-0.04,0.52 -0.14,1.05 -0.32,1.54 0.02,0.02 0.04,0.03 0.07,0.04zm-2.28 -0.66c0.47,0.03 0.95,0.13 1.41,0.28 0.13,-0.39 0.22,-0.79 0.25,-1.2l-1.66 0 0 0.92zm0 1.95c0.43,-0.15 0.78,-0.5 1.03,-0.89 -0.34,-0.1 -0.69,-0.16 -1.03,-0.19l0 1.08zm2.93 -3.74c-0.07,-0.58 -0.3,-1.14 -0.65,-1.61 -0.03,0.02 -0.05,0.03 -0.07,0.04 0.18,0.51 0.29,1.04 0.32,1.57l0.4 0zm-6.33 0.87l-0.4 0c0.08,0.57 0.3,1.12 0.65,1.58 0.02,-0.01 0.05,-0.02 0.07,-0.04 -0.18,-0.49 -0.29,-1.02 -0.32,-1.54zm0.86 0c0.04,0.41 0.12,0.81 0.26,1.2 0.45,-0.15 0.93,-0.25 1.41,-0.28l0 -0.92 -1.67 0zm1.67 1.79c-0.35,0.03 -0.7,0.09 -1.03,0.19 0.25,0.39 0.6,0.74 1.03,0.89l0 -1.08zm-2.21 -4.23c-0.02,-0.01 -0.05,-0.02 -0.07,-0.04 -0.36,0.47 -0.58,1.03 -0.65,1.61l0.39 0c0.04,-0.53 0.15,-1.06 0.33,-1.57zm0.8 0.35c-0.14,0.39 -0.23,0.81 -0.26,1.22l1.67 0 0 -0.95c-0.48,-0.03 -0.96,-0.12 -1.41,-0.27zm1.41 -1.68c-0.43,0.15 -0.78,0.51 -1.03,0.89 0.33,0.1 0.68,0.17 1.03,0.2l0 -1.09z"/>
   <g>
    <circle class="fil1" cx="6.84" cy="6.84" r="4.04"/>
    <path class="fil2" d="M6.84 2.8l0 8.08c2.23,0 4.04,-1.81 4.04,-4.04 0,-2.23 -1.81,-4.04 -4.04,-4.04z"/>
    <path class="fil3" d="M6.84 2.8c-2.22,0 -4.04,1.82 -4.04,4.04 0,2.23 1.82,4.04 4.04,4.04 2.23,0 4.04,-1.81 4.04,-4.04 0,-2.22 -1.81,-4.04 -4.04,-4.04zm2.19 1.56c-0.07,-0.12 -0.14,-0.23 -0.21,-0.34 -0.08,-0.13 -0.18,-0.25 -0.28,-0.36 0.28,0.14 0.54,0.33 0.77,0.55 -0.09,0.05 -0.18,0.11 -0.28,0.15zm0.15 2.28l-2.13 0 0 -1.37c0.62,-0.03 1.23,-0.15 1.77,-0.35 0.21,0.52 0.34,1.11 0.36,1.72zm-2.13 -1.8l0 -1.6c0.62,0.09 1.19,0.55 1.59,1.29 -0.49,0.18 -1.03,0.29 -1.59,0.31zm3.4 2.23c-0.05,0.76 -0.34,1.5 -0.84,2.09 -0.13,-0.08 -0.26,-0.15 -0.4,-0.22 0.23,-0.57 0.37,-1.21 0.39,-1.87l0.85 0 0 0zm-3.4 1.35l0 -1.35 2.13 0c-0.03,0.6 -0.15,1.19 -0.36,1.7 -0.54,-0.21 -1.15,-0.33 -1.77,-0.35zm1.77 1.25c0.07,-0.11 0.14,-0.23 0.21,-0.35 0.1,0.05 0.19,0.1 0.28,0.16 -0.23,0.22 -0.49,0.4 -0.77,0.55 0.1,-0.11 0.2,-0.23 0.28,-0.36zm-1.77 0.77l0 -1.6c0.56,0.03 1.1,0.13 1.59,0.31 -0.4,0.74 -0.97,1.2 -1.59,1.29zm3.4 -3.8l-0.85 0c-0.02,-0.67 -0.16,-1.32 -0.39,-1.89 0.14,-0.07 0.27,-0.15 0.4,-0.23 0.5,0.6 0.8,1.35 0.84,2.12zm-6.37 0.43c0.03,0.66 0.16,1.3 0.4,1.87 -0.14,0.07 -0.28,0.14 -0.41,0.22 -0.49,-0.59 -0.79,-1.33 -0.83,-2.09l0.84 0zm0.58 2.25c0.06,0.12 0.13,0.24 0.2,0.35 0.09,0.13 0.18,0.25 0.28,0.36 -0.28,-0.15 -0.53,-0.33 -0.77,-0.55 0.09,-0.06 0.19,-0.11 0.29,-0.16zm-0.15 -2.25l2.12 0 0 1.35c-0.62,0.02 -1.22,0.14 -1.76,0.35 -0.21,-0.51 -0.34,-1.1 -0.36,-1.7zm2.12 1.77l0 1.6c-0.61,-0.09 -1.18,-0.55 -1.58,-1.29 0.48,-0.18 1.03,-0.28 1.58,-0.31zm-2.15 -4.09c-0.24,0.57 -0.37,1.22 -0.4,1.89l-0.85 0c0.05,-0.77 0.34,-1.52 0.84,-2.12 0.13,0.08 0.27,0.16 0.41,0.23zm2.15 0.52l0 1.37 -2.12 0c0.02,-0.61 0.14,-1.2 0.36,-1.72 0.54,0.2 1.14,0.32 1.76,0.35zm-1.77 -1.25c-0.07,0.11 -0.14,0.22 -0.2,0.34 -0.1,-0.04 -0.2,-0.1 -0.29,-0.15 0.24,-0.22 0.49,-0.41 0.77,-0.55 -0.1,0.11 -0.19,0.23 -0.28,0.36zm1.77 -0.78l0 1.6c-0.55,-0.02 -1.1,-0.13 -1.58,-0.31 0.4,-0.74 0.97,-1.2 1.58,-1.29z"/>
    <g>
     <polygon class="fil2" points="7.81,1.19 7.17,0.54 6.84,0.22 6.52,0.54 5.87,1.19 6.19,1.52 6.61,1.1 6.61,2.43 7.07,2.43 7.07,1.1 7.49,1.52 "/>
     <polygon class="fil2" points="7.81,12.49 7.17,13.14 6.84,13.46 6.52,13.14 5.87,12.49 6.19,12.17 6.61,12.59 6.61,11.26 7.07,11.26 7.07,12.59 7.49,12.17 "/>
     <polygon class="fil2" points="12.49,7.81 13.14,7.17 13.46,6.84 13.14,6.52 12.49,5.87 12.17,6.19 12.59,6.61 11.26,6.61 11.26,7.07 12.59,7.07 12.17,7.49 "/>
     <polygon class="fil2" points="1.19,7.81 0.54,7.17 0.22,6.84 0.54,6.52 1.19,5.87 1.52,6.19 1.1,6.61 2.43,6.61 2.43,7.07 1.1,7.07 1.52,7.49 "/>
     <polygon class="fil2" points="11.53,3.53 11.53,2.62 11.53,2.16 11.07,2.16 10.15,2.16 10.15,2.62 10.74,2.62 9.8,3.56 10.13,3.88 11.07,2.94 11.07,3.53 "/>
     <polygon class="fil2" points="3.53,11.53 2.62,11.53 2.16,11.53 2.16,11.07 2.16,10.15 2.62,10.15 2.62,10.74 3.56,9.8 3.88,10.13 2.94,11.07 3.53,11.07 "/>
     <polygon class="fil2" points="2.16,3.53 2.16,2.62 2.16,2.16 2.62,2.16 3.53,2.16 3.53,2.62 2.94,2.62 3.88,3.56 3.56,3.88 2.62,2.94 2.62,3.53 "/>
     <polygon class="fil2" points="10.15,11.53 11.07,11.53 11.53,11.53 11.53,11.07 11.53,10.15 11.07,10.15 11.07,10.74 10.13,9.8 9.8,10.13 10.74,11.07 10.15,11.07 "/>
    </g>
   </g>
  </g>
 </g>
</svg>
