<?xml version="1.0" encoding="UTF-8"?>
<!DOCTYPE svg PUBLIC "-//W3C//DTD SVG 1.1//EN" "http://www.w3.org/Graphics/SVG/1.1/DTD/svg11.dtd">
<!-- Creator: CorelDRAW 2017 -->
<svg xmlns="http://www.w3.org/2000/svg" xml:space="preserve" width="420px" height="366px" version="1.1" style="shape-rendering:geometricPrecision; text-rendering:geometricPrecision; image-rendering:optimizeQuality; fill-rule:evenodd; clip-rule:evenodd"
viewBox="0 0 104.72 91.37"
 xmlns:xlink="http://www.w3.org/1999/xlink">
 <defs>
  <style type="text/css">
   <![CDATA[
    .fil0 {fill:#FEFEFE}
    .fil2 {fill:#49474C}
    .fil1 {fill:#870000}
   ]]>
  </style>
 </defs>
 <g id="Camada_x0020_1">
  <metadata id="CorelCorpID_0Corel-Layer"/>
  <g id="_1818060020464">
   <path class="fil0" d="M80.25 41.25c0.43,0.63 0.88,1.25 1.34,1.87 1.71,2.25 2.3,4.68 0.24,6.99 -0.47,0.53 -0.99,0.99 -1.49,1.49 -1.5,1.5 -3.55,3.22 -5.83,2.55 -1.7,-0.49 -2.72,-2.06 -4.29,-2.83 -0.3,0.1 -0.84,0.39 -1.05,0.5 -0.77,0.39 -1.52,0.78 -2.35,1.05 -0.16,0.05 -0.32,0.1 -0.48,0.14 -0.01,0.03 -0.01,0.07 -0.02,0.1 -0.31,1.88 -0.45,4.02 -1.71,5.55 -1.07,1.29 -2.61,1.74 -4.24,1.74 -1.82,0 -3.88,0.2 -5.52,-0.75 -1.32,-0.76 -2,-2.02 -2.31,-3.47 -0.19,-0.89 -0.35,-1.77 -0.48,-2.67 -0.02,-0.15 -0.04,-0.35 -0.07,-0.55 -0.23,-0.06 -0.47,-0.12 -0.7,-0.19 -0.97,-0.32 -1.92,-0.76 -2.82,-1.24 -0.1,-0.05 -0.24,-0.12 -0.36,-0.19 -0.13,0.09 -0.26,0.18 -0.36,0.25 -4.41,3.06 -5.69,4.13 -9.91,-0.09 -3.12,-3.12 -3.75,-4.54 -1.22,-8.33 0.3,-0.44 0.57,-0.87 0.89,-1.29 0.15,-0.19 0.34,-0.42 0.49,-0.64 -0.1,-0.31 -0.37,-0.81 -0.47,-1.01 -0.4,-0.76 -0.78,-1.52 -1.05,-2.34 -0.06,-0.16 -0.11,-0.32 -0.15,-0.49 -0.36,-0.06 -0.73,-0.11 -1.09,-0.16 -3.26,-0.5 -6.29,-1.43 -6.29,-5.4 0,-1.89 -0.27,-4.33 0.74,-6.01 0.85,-1.39 2.32,-1.99 3.85,-2.29 0.78,-0.15 1.55,-0.27 2.33,-0.38 0.14,-0.02 0.33,-0.04 0.52,-0.07 0.1,-0.35 0.19,-0.75 0.3,-1.07 0.25,-0.77 0.56,-1.5 0.95,-2.21 0.1,-0.18 0.25,-0.4 0.37,-0.61 -0.09,-0.14 -0.2,-0.29 -0.26,-0.39 -0.27,-0.39 -0.56,-0.77 -0.84,-1.16 -1.68,-2.32 -2.68,-4.7 -0.59,-7.21 1.36,-1.64 3.96,-4.27 6.2,-4.27 1.94,0 3.83,1.68 5.35,2.73 0.07,0.04 0.16,0.11 0.25,0.17 0.17,-0.09 0.35,-0.2 0.49,-0.27 0.85,-0.45 1.74,-0.85 2.66,-1.14 0.22,-0.07 0.48,-0.13 0.72,-0.19 0.02,-0.13 0.03,-0.26 0.04,-0.35 0.28,-1.95 0.6,-4.71 2.24,-6.02 1.61,-1.29 4.55,-1.09 6.51,-1.09 1.35,0 2.59,0.41 3.54,1.39 1.55,1.61 1.66,3.9 2.02,6 0.47,0.12 0.92,0.29 1.36,0.49 0.72,0.31 1.66,0.88 2.47,1.2l1.88 -1.34c1.32,-0.99 2.88,-1.88 4.59,-1.51 1.53,0.32 2.73,1.6 3.8,2.66 4.28,4.28 3.09,5.58 0,10.04 -0.04,0.06 -0.11,0.15 -0.17,0.24 0.09,0.17 0.2,0.35 0.28,0.49 0.44,0.85 0.85,1.74 1.14,2.66 0.07,0.23 0.12,0.48 0.18,0.72 0.13,0.02 0.26,0.03 0.35,0.05 1.85,0.26 4.01,0.46 5.47,1.73 1.23,1.06 1.64,2.56 1.64,4.14 0,2.67 0.35,5.33 -2.19,7.06 -1.28,0.88 -2.87,0.96 -4.36,1.2 -0.29,0.04 -0.58,0.06 -0.87,0.09 -0.15,0.47 -0.29,0.95 -0.47,1.43 -0.29,0.73 -0.87,1.7 -1.19,2.5zm-21.11 -2.67c4.53,0 8.37,-3.85 8.37,-8.38 0,-4.55 -3.82,-8.37 -8.37,-8.37 -4.54,0 -8.37,3.83 -8.37,8.37 0,4.53 3.84,8.38 8.37,8.38z"/>
   <path class="fil1" d="M59.14 40.05c-5.34,0 -9.85,-4.5 -9.85,-9.85 0,-5.35 4.5,-9.84 9.85,-9.84 5.37,0 9.85,4.49 9.85,9.84 0,5.34 -4.51,9.85 -9.85,9.85zm-16.62 -32.41c-1.64,0 -4.06,2.53 -5.07,3.74 -2.02,2.43 0.11,4.57 1.51,6.59 1.3,1.88 0.25,1.14 -0.87,4.51 -0.86,2.57 0.24,1.64 -4.27,2.51 -3.93,0.75 -3.4,3.1 -3.4,6.85 0,3.96 4.18,3.61 7.18,4.31 0.2,2.35 2.29,4.53 1.86,5.53 -0.09,0.22 -0.59,0.85 -0.78,1.09 -0.33,0.45 -0.52,0.76 -0.83,1.22 -1.95,2.9 -1.85,3.58 1.03,6.47 3.48,3.48 3.93,2.76 8.03,-0.08 1.1,-0.76 1.03,-0.79 2.25,-0.15 5.49,2.91 3.5,-0.62 4.82,5.64 0.74,3.48 3.51,3.05 6.39,3.05 4.48,0 3.95,-3.89 4.72,-7.18 2.35,-0.19 4.52,-2.29 5.53,-1.86 3.43,1.49 3.94,5.42 8.67,0.68 0.5,-0.5 0.98,-0.91 1.44,-1.43 1.6,-1.79 0.91,-3.51 -0.31,-5.13 -0.64,-0.84 -1.23,-1.67 -1.79,-2.51 0.2,-0.89 1.04,-2.28 1.44,-3.28 1.12,-2.84 0.06,-2.06 2.48,-2.44 1.36,-0.21 2.79,-0.29 3.76,-0.96 1.89,-1.28 1.55,-3.43 1.55,-5.84 0,-3.78 -2.76,-3.97 -5.84,-4.41 -2.26,-0.32 -0.69,-0.21 -2.78,-4.2 -0.62,-1.18 -0.77,-1.16 -0.01,-2.26 2.91,-4.21 3.67,-4.65 0.17,-8.15 -2.25,-2.25 -3.37,-3.36 -6.46,-1.02l-2.52 1.79c-1.57,-0.37 -3.35,-1.89 -5.33,-2.06 -0.64,-2.75 -0.34,-7.17 -4.31,-7.17 -5.83,0 -6.44,-0.07 -7.29,5.84 -0.32,2.26 -0.2,0.68 -4.2,2.77 -1.17,0.62 -1.16,0.77 -2.26,0.01 -0.97,-0.68 -3.09,-2.47 -4.51,-2.47z"/>
   <path class="fil0" d="M84.96 58.09c2.78,-1.46 6.78,-2.65 8.84,0.42 0.23,0.35 0.3,0.73 0.21,1.14 -0.03,0.14 -0.07,0.27 -0.14,0.39 1.54,-0.87 3.06,-1.57 4.04,-1.57 3.67,0 6.81,2.37 6.81,6.2 0,3.2 -1.68,4.35 -3.93,6.04 -0.02,0.01 -0.03,0.02 -0.04,0.03l-22.4 15.72c-5,3.64 -9.74,4.91 -15.93,4.91 -0.03,0 -0.05,0 -0.08,0l-15.74 -0.88c-0.04,0 -0.08,0 -0.12,-0.01 -1.57,-0.21 -3.39,-0.34 -4.98,-0.34 -0.04,0 -0.07,0 -0.11,0l-18.25 -1.23c-0.56,-0.04 -1.04,-0.12 -1.54,-0.34 -0.18,0.2 -0.36,0.38 -0.61,0.57 -2.94,2.27 -6.42,1.3 -9.71,1.75 -4.2,0.58 -8.3,-0.14 -9.92,-4.61 -0.39,-1.07 -0.44,-3.01 -0.5,-4.17 -0.05,-1.1 -0.06,-2.27 -0.18,-3.36 0,-0.03 -0.01,-0.06 -0.01,-0.09l-0.55 -11.06c-0.19,-1.32 -0.1,-2.64 -0.1,-3.96 0,-1.02 0.68,-2.37 1.29,-3.18 0.65,-0.87 1.25,-1.43 2.21,-1.95 1.07,-0.58 2.05,-0.84 3.25,-0.86l6.08 -0.23c2.96,-0.33 5.59,-0.37 7.6,1.8 0.52,-0.15 1.04,-0.28 1.54,-0.44 4.43,-1.44 9.16,-1.53 13.74,-0.88 3.26,0.47 5.7,1.36 8.73,2.47 0.94,0.34 1.88,0.66 2.85,0.9 2.71,0.68 5.53,1.1 8.29,1.55 8.03,0.83 8.47,-1.13 15.41,-3.89 0.6,-0.27 1.2,-0.47 1.81,-0.7 0.54,-0.22 1.1,-0.49 1.64,-0.73 1.02,-0.44 2.05,-0.85 3.1,-1.21 2.11,-0.72 6.63,-2.04 7.39,1.19 0.04,0.21 0.05,0.41 0.01,0.61zm-73.41 25.2c1.6,0 1.89,-2.79 -0.21,-2.79 -1.51,0 -1.85,2.79 0.21,2.79z"/>
   <g>
    <path class="fil2" d="M11.55 84.77c-4.01,0 -3.66,-5.75 -0.21,-5.75 4.05,0 3.75,5.75 0.21,5.75zm-10.05 -21.13c0,1.25 -0.1,2.6 0.08,3.81l0.56 11.13c0.18,1.62 0.17,6 0.61,7.2 1.35,3.74 4.82,4.13 8.33,3.65 2.77,-0.38 6.6,0.41 9.01,-1.46 0.68,-0.52 0.54,-0.74 1.1,-1.15 1.03,0.24 0.76,0.53 2.05,0.62l18.25 1.23c1.47,-0.01 3.93,0.18 5.19,0.35l15.74 0.88c6.28,0 10.59,-1.38 15.06,-4.64l22.42 -15.73c1.59,-1.19 3.34,-2.14 3.34,-4.86 0,-2.68 -2.1,-4.72 -5.33,-4.72 -1.53,0 -6.26,3.2 -7.78,4.11 -2.48,1.49 -4.92,2.94 -7.44,4.46 -2.52,1.53 -4.91,2.9 -7.46,4.44 -2.7,1.62 -4.65,2.99 -8.91,2.99l-16.21 0c-0.85,0 -0.82,-0.76 -0.82,-1.23 0,-1.21 2.23,-0.83 4.11,-0.82 1.86,0 2.88,-0.22 4.71,-0.21 4.47,0.02 11.01,0.99 12.9,-1.87 1.79,-2.72 0.38,-6.53 -4.07,-6.54l-11.52 -1c-2.76,-0.45 -5.82,-0.91 -8.47,-1.58 -3.71,-0.94 -6.16,-2.58 -11.43,-3.34 -4.39,-0.62 -8.88,-0.54 -13.07,0.82 -0.71,0.23 -1.84,0.48 -2.49,0.79 -1.74,-2.6 -4.27,-2.39 -7,-2.08l-6.14 0.23c-1.1,0.02 -1.83,0.26 -2.6,0.68 -0.78,0.43 -1.2,0.83 -1.74,1.54 -0.35,0.47 -0.98,1.6 -0.98,2.3z"/>
    <path class="fil2" d="M73.29 65.9c0.81,1.53 1.03,2.18 1.03,4.51 0.75,-0.4 1.42,-0.82 2.17,-1.32l16.09 -9.76c-1.71,-2.55 -5.72,-0.66 -7.59,0.42l-11.7 6.15z"/>
    <path class="fil2" d="M66.11 62.61c2.24,0 3.78,0.33 5.13,1.23l12.27 -6.02c-0.66,-2.81 -9.23,1.42 -10.16,1.78 -0.68,0.27 -1.1,0.39 -1.77,0.69l-4.99 1.98c-0.42,0.24 -0.25,0.15 -0.48,0.34z"/>
   </g>
  </g>
 </g>
</svg>
